<mxfile host="Electron" agent="Mozilla/5.0 (Windows NT 10.0; Win64; x64) AppleWebKit/537.36 (KHTML, like Gecko) draw.io/24.7.8 Chrome/128.0.6613.36 Electron/32.0.1 Safari/537.36" version="24.7.8">
  <diagram name="Page-1" id="GD_yTMIgneu08puWnrFS">
    <mxGraphModel dx="983" dy="852" grid="1" gridSize="10" guides="1" tooltips="1" connect="1" arrows="1" fold="1" page="1" pageScale="1" pageWidth="850" pageHeight="1100" math="0" shadow="0">
      <root>
        <mxCell id="0" />
        <mxCell id="1" parent="0" />
        <mxCell id="MaOenqcY2Du_6bEz6hwa-1" value="1" style="swimlane;fontStyle=0;childLayout=stackLayout;horizontal=1;startSize=20;fillColor=#fff2cc;horizontalStack=0;resizeParent=1;resizeParentMax=0;resizeLast=0;collapsible=0;marginBottom=0;swimlaneFillColor=#ffffff;rounded=1;strokeColor=#d6b656;arcSize=20;" vertex="1" parent="1">
          <mxGeometry x="310" y="90" width="100" height="80" as="geometry" />
        </mxCell>
        <mxCell id="MaOenqcY2Du_6bEz6hwa-2" value="Level Load" style="text;html=1;align=center;verticalAlign=middle;whiteSpace=wrap;rounded=0;" vertex="1" parent="MaOenqcY2Du_6bEz6hwa-1">
          <mxGeometry y="20" width="100" height="40" as="geometry" />
        </mxCell>
        <mxCell id="MaOenqcY2Du_6bEz6hwa-3" value="&amp;nbsp;" style="text;html=1;align=center;verticalAlign=middle;whiteSpace=wrap;rounded=1;fillColor=#fff2cc;strokeColor=#d6b656;arcSize=13;" vertex="1" parent="MaOenqcY2Du_6bEz6hwa-1">
          <mxGeometry y="60" width="100" height="20" as="geometry" />
        </mxCell>
        <mxCell id="MaOenqcY2Du_6bEz6hwa-4" value="" style="endArrow=none;html=1;rounded=0;exitX=0;exitY=0;exitDx=0;exitDy=0;entryX=1;entryY=0;entryDx=0;entryDy=0;fillColor=#fff2cc;strokeColor=#d6b656;" edge="1" parent="MaOenqcY2Du_6bEz6hwa-1" source="MaOenqcY2Du_6bEz6hwa-3" target="MaOenqcY2Du_6bEz6hwa-3">
          <mxGeometry width="50" height="50" relative="1" as="geometry">
            <mxPoint x="40" y="155" as="sourcePoint" />
            <mxPoint x="90" y="105" as="targetPoint" />
          </mxGeometry>
        </mxCell>
        <mxCell id="MaOenqcY2Du_6bEz6hwa-6" style="edgeStyle=orthogonalEdgeStyle;rounded=0;orthogonalLoop=1;jettySize=auto;html=1;exitX=0.988;exitY=0.072;exitDx=0;exitDy=0;entryX=0;entryY=0.5;entryDx=0;entryDy=0;exitPerimeter=0;" edge="1" parent="1" source="MaOenqcY2Du_6bEz6hwa-5" target="MaOenqcY2Du_6bEz6hwa-2">
          <mxGeometry relative="1" as="geometry">
            <Array as="points">
              <mxPoint x="129" y="130" />
            </Array>
          </mxGeometry>
        </mxCell>
        <mxCell id="MaOenqcY2Du_6bEz6hwa-7" value="Selects Level" style="edgeLabel;html=1;align=center;verticalAlign=middle;resizable=0;points=[];" vertex="1" connectable="0" parent="MaOenqcY2Du_6bEz6hwa-6">
          <mxGeometry x="0.0178" y="1" relative="1" as="geometry">
            <mxPoint y="-11" as="offset" />
          </mxGeometry>
        </mxCell>
        <mxCell id="MaOenqcY2Du_6bEz6hwa-42" style="edgeStyle=orthogonalEdgeStyle;rounded=0;orthogonalLoop=1;jettySize=auto;html=1;exitX=1.02;exitY=0.291;exitDx=0;exitDy=0;entryX=0;entryY=0.5;entryDx=0;entryDy=0;exitPerimeter=0;" edge="1" parent="1" source="MaOenqcY2Du_6bEz6hwa-5" target="MaOenqcY2Du_6bEz6hwa-39">
          <mxGeometry relative="1" as="geometry">
            <Array as="points">
              <mxPoint x="132" y="170" />
              <mxPoint x="220" y="170" />
              <mxPoint x="220" y="240" />
            </Array>
          </mxGeometry>
        </mxCell>
        <mxCell id="MaOenqcY2Du_6bEz6hwa-46" value="Select Tower" style="edgeLabel;html=1;align=center;verticalAlign=middle;resizable=0;points=[];" vertex="1" connectable="0" parent="MaOenqcY2Du_6bEz6hwa-42">
          <mxGeometry x="0.3557" relative="1" as="geometry">
            <mxPoint x="34" y="-10" as="offset" />
          </mxGeometry>
        </mxCell>
        <mxCell id="MaOenqcY2Du_6bEz6hwa-55" style="edgeStyle=orthogonalEdgeStyle;rounded=0;orthogonalLoop=1;jettySize=auto;html=1;exitX=1;exitY=0.5;exitDx=0;exitDy=0;entryX=0;entryY=0;entryDx=0;entryDy=0;" edge="1" parent="1" source="MaOenqcY2Du_6bEz6hwa-5" target="MaOenqcY2Du_6bEz6hwa-48">
          <mxGeometry relative="1" as="geometry">
            <Array as="points">
              <mxPoint x="130" y="280" />
              <mxPoint x="220" y="280" />
              <mxPoint x="220" y="320" />
            </Array>
          </mxGeometry>
        </mxCell>
        <mxCell id="MaOenqcY2Du_6bEz6hwa-56" value="Clicks Start Round" style="edgeLabel;html=1;align=center;verticalAlign=middle;resizable=0;points=[];" vertex="1" connectable="0" parent="MaOenqcY2Du_6bEz6hwa-55">
          <mxGeometry x="0.2851" y="-1" relative="1" as="geometry">
            <mxPoint x="-39" y="-42" as="offset" />
          </mxGeometry>
        </mxCell>
        <mxCell id="MaOenqcY2Du_6bEz6hwa-5" value="Player" style="html=1;dashed=0;whiteSpace=wrap;" vertex="1" parent="1">
          <mxGeometry x="20" y="100" width="110" height="250" as="geometry" />
        </mxCell>
        <mxCell id="MaOenqcY2Du_6bEz6hwa-59" style="edgeStyle=orthogonalEdgeStyle;rounded=0;orthogonalLoop=1;jettySize=auto;html=1;exitX=0;exitY=0.5;exitDx=0;exitDy=0;entryX=1;entryY=0.75;entryDx=0;entryDy=0;" edge="1" parent="1" source="MaOenqcY2Du_6bEz6hwa-24" target="MaOenqcY2Du_6bEz6hwa-48">
          <mxGeometry relative="1" as="geometry">
            <mxPoint x="460" y="410" as="targetPoint" />
            <Array as="points">
              <mxPoint x="610" y="315" />
              <mxPoint x="610" y="357" />
            </Array>
          </mxGeometry>
        </mxCell>
        <mxCell id="MaOenqcY2Du_6bEz6hwa-60" value="Level Difficultly Table" style="edgeLabel;html=1;align=center;verticalAlign=middle;resizable=0;points=[];" vertex="1" connectable="0" parent="MaOenqcY2Du_6bEz6hwa-59">
          <mxGeometry x="0.5956" y="1" relative="1" as="geometry">
            <mxPoint x="19" y="-9" as="offset" />
          </mxGeometry>
        </mxCell>
        <mxCell id="MaOenqcY2Du_6bEz6hwa-24" value="Game Save Data" style="html=1;dashed=0;whiteSpace=wrap;" vertex="1" parent="1">
          <mxGeometry x="820" y="100" width="110" height="230" as="geometry" />
        </mxCell>
        <mxCell id="MaOenqcY2Du_6bEz6hwa-29" style="edgeStyle=orthogonalEdgeStyle;rounded=0;orthogonalLoop=1;jettySize=auto;html=1;entryX=1;entryY=0.5;entryDx=0;entryDy=0;exitX=0;exitY=0;exitDx=0;exitDy=0;" edge="1" parent="1" source="MaOenqcY2Du_6bEz6hwa-24" target="MaOenqcY2Du_6bEz6hwa-2">
          <mxGeometry relative="1" as="geometry">
            <mxPoint x="720" y="130" as="sourcePoint" />
            <mxPoint x="460" y="345" as="targetPoint" />
            <Array as="points">
              <mxPoint x="820" y="130" />
            </Array>
          </mxGeometry>
        </mxCell>
        <mxCell id="MaOenqcY2Du_6bEz6hwa-30" value="Level Data" style="edgeLabel;html=1;align=center;verticalAlign=middle;resizable=0;points=[];" vertex="1" connectable="0" parent="MaOenqcY2Du_6bEz6hwa-29">
          <mxGeometry x="-0.0709" y="-2" relative="1" as="geometry">
            <mxPoint x="-7" y="-11" as="offset" />
          </mxGeometry>
        </mxCell>
        <mxCell id="MaOenqcY2Du_6bEz6hwa-35" value="" style="swimlane;startSize=0;fillColor=#f5f5f5;gradientColor=#b3b3b3;strokeColor=#666666;" vertex="1" parent="1">
          <mxGeometry x="500" y="140" width="200" height="40" as="geometry" />
        </mxCell>
        <mxCell id="MaOenqcY2Du_6bEz6hwa-36" value="" style="rounded=0;whiteSpace=wrap;html=1;fillColor=#f5f5f5;gradientColor=#b3b3b3;strokeColor=#666666;" vertex="1" parent="MaOenqcY2Du_6bEz6hwa-35">
          <mxGeometry width="50" height="40" as="geometry" />
        </mxCell>
        <mxCell id="MaOenqcY2Du_6bEz6hwa-37" value="Current Level Data" style="text;html=1;align=center;verticalAlign=middle;whiteSpace=wrap;rounded=0;" vertex="1" parent="MaOenqcY2Du_6bEz6hwa-35">
          <mxGeometry x="50" width="150" height="40" as="geometry" />
        </mxCell>
        <mxCell id="MaOenqcY2Du_6bEz6hwa-34" style="edgeStyle=orthogonalEdgeStyle;rounded=0;orthogonalLoop=1;jettySize=auto;html=1;entryX=0;entryY=0.5;entryDx=0;entryDy=0;" edge="1" parent="1" source="MaOenqcY2Du_6bEz6hwa-3" target="MaOenqcY2Du_6bEz6hwa-36">
          <mxGeometry relative="1" as="geometry">
            <mxPoint x="360" y="280" as="targetPoint" />
          </mxGeometry>
        </mxCell>
        <mxCell id="MaOenqcY2Du_6bEz6hwa-38" value="2" style="swimlane;fontStyle=0;childLayout=stackLayout;horizontal=1;startSize=20;fillColor=#fff2cc;horizontalStack=0;resizeParent=1;resizeParentMax=0;resizeLast=0;collapsible=0;marginBottom=0;swimlaneFillColor=#ffffff;rounded=1;strokeColor=#d6b656;arcSize=20;" vertex="1" parent="1">
          <mxGeometry x="310" y="200" width="100" height="80" as="geometry" />
        </mxCell>
        <mxCell id="MaOenqcY2Du_6bEz6hwa-39" value="Purchace Tower" style="text;html=1;align=center;verticalAlign=middle;whiteSpace=wrap;rounded=0;" vertex="1" parent="MaOenqcY2Du_6bEz6hwa-38">
          <mxGeometry y="20" width="100" height="40" as="geometry" />
        </mxCell>
        <mxCell id="MaOenqcY2Du_6bEz6hwa-40" value="&amp;nbsp;" style="text;html=1;align=center;verticalAlign=middle;whiteSpace=wrap;rounded=1;fillColor=#fff2cc;strokeColor=#d6b656;arcSize=13;" vertex="1" parent="MaOenqcY2Du_6bEz6hwa-38">
          <mxGeometry y="60" width="100" height="20" as="geometry" />
        </mxCell>
        <mxCell id="MaOenqcY2Du_6bEz6hwa-41" value="" style="endArrow=none;html=1;rounded=0;exitX=0;exitY=0;exitDx=0;exitDy=0;entryX=1;entryY=0;entryDx=0;entryDy=0;fillColor=#fff2cc;strokeColor=#d6b656;" edge="1" parent="MaOenqcY2Du_6bEz6hwa-38" source="MaOenqcY2Du_6bEz6hwa-40" target="MaOenqcY2Du_6bEz6hwa-40">
          <mxGeometry width="50" height="50" relative="1" as="geometry">
            <mxPoint x="40" y="155" as="sourcePoint" />
            <mxPoint x="90" y="105" as="targetPoint" />
          </mxGeometry>
        </mxCell>
        <mxCell id="MaOenqcY2Du_6bEz6hwa-44" style="edgeStyle=orthogonalEdgeStyle;rounded=0;orthogonalLoop=1;jettySize=auto;html=1;exitX=0.25;exitY=1;exitDx=0;exitDy=0;entryX=1;entryY=0.5;entryDx=0;entryDy=0;" edge="1" parent="1" source="MaOenqcY2Du_6bEz6hwa-36" target="MaOenqcY2Du_6bEz6hwa-39">
          <mxGeometry relative="1" as="geometry" />
        </mxCell>
        <mxCell id="MaOenqcY2Du_6bEz6hwa-45" value="Game State Data" style="edgeLabel;html=1;align=center;verticalAlign=middle;resizable=0;points=[];" vertex="1" connectable="0" parent="MaOenqcY2Du_6bEz6hwa-44">
          <mxGeometry x="0.2896" y="-3" relative="1" as="geometry">
            <mxPoint x="-8" y="-7" as="offset" />
          </mxGeometry>
        </mxCell>
        <mxCell id="MaOenqcY2Du_6bEz6hwa-47" value="3" style="swimlane;fontStyle=0;childLayout=stackLayout;horizontal=1;startSize=20;fillColor=#fff2cc;horizontalStack=0;resizeParent=1;resizeParentMax=0;resizeLast=0;collapsible=0;marginBottom=0;swimlaneFillColor=#ffffff;rounded=1;strokeColor=#d6b656;arcSize=20;" vertex="1" parent="1">
          <mxGeometry x="310" y="300" width="100" height="90" as="geometry" />
        </mxCell>
        <mxCell id="MaOenqcY2Du_6bEz6hwa-48" value="Start Round" style="text;html=1;align=center;verticalAlign=middle;whiteSpace=wrap;rounded=0;" vertex="1" parent="MaOenqcY2Du_6bEz6hwa-47">
          <mxGeometry y="20" width="100" height="50" as="geometry" />
        </mxCell>
        <mxCell id="MaOenqcY2Du_6bEz6hwa-49" value="&amp;nbsp;" style="text;html=1;align=center;verticalAlign=middle;whiteSpace=wrap;rounded=1;fillColor=#fff2cc;strokeColor=#d6b656;arcSize=13;" vertex="1" parent="MaOenqcY2Du_6bEz6hwa-47">
          <mxGeometry y="70" width="100" height="20" as="geometry" />
        </mxCell>
        <mxCell id="MaOenqcY2Du_6bEz6hwa-50" value="" style="endArrow=none;html=1;rounded=0;exitX=0;exitY=0;exitDx=0;exitDy=0;entryX=1;entryY=0;entryDx=0;entryDy=0;fillColor=#fff2cc;strokeColor=#d6b656;" edge="1" parent="MaOenqcY2Du_6bEz6hwa-47" source="MaOenqcY2Du_6bEz6hwa-49" target="MaOenqcY2Du_6bEz6hwa-49">
          <mxGeometry width="50" height="50" relative="1" as="geometry">
            <mxPoint x="40" y="155" as="sourcePoint" />
            <mxPoint x="90" y="105" as="targetPoint" />
          </mxGeometry>
        </mxCell>
        <mxCell id="MaOenqcY2Du_6bEz6hwa-51" style="edgeStyle=orthogonalEdgeStyle;rounded=0;orthogonalLoop=1;jettySize=auto;html=1;exitX=1;exitY=1;exitDx=0;exitDy=0;entryX=0;entryY=1;entryDx=0;entryDy=0;" edge="1" parent="1" source="MaOenqcY2Du_6bEz6hwa-39" target="MaOenqcY2Du_6bEz6hwa-37">
          <mxGeometry relative="1" as="geometry">
            <Array as="points">
              <mxPoint x="550" y="260" />
            </Array>
          </mxGeometry>
        </mxCell>
        <mxCell id="MaOenqcY2Du_6bEz6hwa-52" value="Tower Data" style="edgeLabel;html=1;align=center;verticalAlign=middle;resizable=0;points=[];" vertex="1" connectable="0" parent="MaOenqcY2Du_6bEz6hwa-51">
          <mxGeometry x="-0.297" y="2" relative="1" as="geometry">
            <mxPoint x="-7" y="12" as="offset" />
          </mxGeometry>
        </mxCell>
        <mxCell id="MaOenqcY2Du_6bEz6hwa-57" style="edgeStyle=orthogonalEdgeStyle;rounded=0;orthogonalLoop=1;jettySize=auto;html=1;exitX=0.25;exitY=1;exitDx=0;exitDy=0;entryX=1;entryY=0.25;entryDx=0;entryDy=0;" edge="1" parent="1" source="MaOenqcY2Du_6bEz6hwa-37" target="MaOenqcY2Du_6bEz6hwa-48">
          <mxGeometry relative="1" as="geometry" />
        </mxCell>
        <mxCell id="MaOenqcY2Du_6bEz6hwa-58" value="Old Round Data" style="edgeLabel;html=1;align=center;verticalAlign=middle;resizable=0;points=[];" vertex="1" connectable="0" parent="MaOenqcY2Du_6bEz6hwa-57">
          <mxGeometry x="0.6414" y="-2" relative="1" as="geometry">
            <mxPoint x="1" y="-8" as="offset" />
          </mxGeometry>
        </mxCell>
        <mxCell id="MaOenqcY2Du_6bEz6hwa-61" value="5" style="swimlane;fontStyle=0;childLayout=stackLayout;horizontal=1;startSize=20;fillColor=#fff2cc;horizontalStack=0;resizeParent=1;resizeParentMax=0;resizeLast=0;collapsible=0;marginBottom=0;swimlaneFillColor=#ffffff;rounded=1;strokeColor=#d6b656;arcSize=20;" vertex="1" parent="1">
          <mxGeometry x="390" y="510" width="100" height="80" as="geometry" />
        </mxCell>
        <mxCell id="MaOenqcY2Du_6bEz6hwa-62" value="Unload Level" style="text;html=1;align=center;verticalAlign=middle;whiteSpace=wrap;rounded=0;" vertex="1" parent="MaOenqcY2Du_6bEz6hwa-61">
          <mxGeometry y="20" width="100" height="40" as="geometry" />
        </mxCell>
        <mxCell id="MaOenqcY2Du_6bEz6hwa-63" value="&amp;nbsp;" style="text;html=1;align=center;verticalAlign=middle;whiteSpace=wrap;rounded=1;fillColor=#fff2cc;strokeColor=#d6b656;arcSize=13;" vertex="1" parent="MaOenqcY2Du_6bEz6hwa-61">
          <mxGeometry y="60" width="100" height="20" as="geometry" />
        </mxCell>
        <mxCell id="MaOenqcY2Du_6bEz6hwa-64" value="" style="endArrow=none;html=1;rounded=0;exitX=0;exitY=0;exitDx=0;exitDy=0;entryX=1;entryY=0;entryDx=0;entryDy=0;fillColor=#fff2cc;strokeColor=#d6b656;" edge="1" parent="MaOenqcY2Du_6bEz6hwa-61" source="MaOenqcY2Du_6bEz6hwa-63" target="MaOenqcY2Du_6bEz6hwa-63">
          <mxGeometry width="50" height="50" relative="1" as="geometry">
            <mxPoint x="40" y="155" as="sourcePoint" />
            <mxPoint x="90" y="105" as="targetPoint" />
          </mxGeometry>
        </mxCell>
        <mxCell id="MaOenqcY2Du_6bEz6hwa-65" value="4" style="swimlane;fontStyle=0;childLayout=stackLayout;horizontal=1;startSize=20;fillColor=#fff2cc;horizontalStack=0;resizeParent=1;resizeParentMax=0;resizeLast=0;collapsible=0;marginBottom=0;swimlaneFillColor=#ffffff;rounded=1;strokeColor=#d6b656;arcSize=20;" vertex="1" parent="1">
          <mxGeometry x="130" y="430" width="100" height="80" as="geometry" />
        </mxCell>
        <mxCell id="MaOenqcY2Du_6bEz6hwa-66" value="Spawn Enemies" style="text;html=1;align=center;verticalAlign=middle;whiteSpace=wrap;rounded=0;" vertex="1" parent="MaOenqcY2Du_6bEz6hwa-65">
          <mxGeometry y="20" width="100" height="40" as="geometry" />
        </mxCell>
        <mxCell id="MaOenqcY2Du_6bEz6hwa-67" value="&amp;nbsp;" style="text;html=1;align=center;verticalAlign=middle;whiteSpace=wrap;rounded=1;fillColor=#fff2cc;strokeColor=#d6b656;arcSize=13;" vertex="1" parent="MaOenqcY2Du_6bEz6hwa-65">
          <mxGeometry y="60" width="100" height="20" as="geometry" />
        </mxCell>
        <mxCell id="MaOenqcY2Du_6bEz6hwa-68" value="" style="endArrow=none;html=1;rounded=0;exitX=0;exitY=0;exitDx=0;exitDy=0;entryX=1;entryY=0;entryDx=0;entryDy=0;fillColor=#fff2cc;strokeColor=#d6b656;" edge="1" parent="MaOenqcY2Du_6bEz6hwa-65" source="MaOenqcY2Du_6bEz6hwa-67" target="MaOenqcY2Du_6bEz6hwa-67">
          <mxGeometry width="50" height="50" relative="1" as="geometry">
            <mxPoint x="40" y="155" as="sourcePoint" />
            <mxPoint x="90" y="105" as="targetPoint" />
          </mxGeometry>
        </mxCell>
        <mxCell id="MaOenqcY2Du_6bEz6hwa-69" style="edgeStyle=orthogonalEdgeStyle;rounded=0;orthogonalLoop=1;jettySize=auto;html=1;exitX=0;exitY=0.75;exitDx=0;exitDy=0;entryX=0.5;entryY=0;entryDx=0;entryDy=0;" edge="1" parent="1" source="MaOenqcY2Du_6bEz6hwa-48" target="MaOenqcY2Du_6bEz6hwa-65">
          <mxGeometry relative="1" as="geometry">
            <Array as="points">
              <mxPoint x="180" y="358" />
            </Array>
          </mxGeometry>
        </mxCell>
        <mxCell id="MaOenqcY2Du_6bEz6hwa-76" value="Enemy Class" style="edgeLabel;html=1;align=center;verticalAlign=middle;resizable=0;points=[];" vertex="1" connectable="0" parent="MaOenqcY2Du_6bEz6hwa-69">
          <mxGeometry x="-0.0008" relative="1" as="geometry">
            <mxPoint x="31" y="-8" as="offset" />
          </mxGeometry>
        </mxCell>
        <mxCell id="MaOenqcY2Du_6bEz6hwa-79" style="edgeStyle=orthogonalEdgeStyle;rounded=0;orthogonalLoop=1;jettySize=auto;html=1;exitX=1;exitY=0.5;exitDx=0;exitDy=0;entryX=0.456;entryY=1.045;entryDx=0;entryDy=0;entryPerimeter=0;" edge="1" parent="1" source="MaOenqcY2Du_6bEz6hwa-66" target="MaOenqcY2Du_6bEz6hwa-37">
          <mxGeometry relative="1" as="geometry" />
        </mxCell>
        <mxCell id="MaOenqcY2Du_6bEz6hwa-80" value="Enemy Stats" style="edgeLabel;html=1;align=center;verticalAlign=middle;resizable=0;points=[];" vertex="1" connectable="0" parent="MaOenqcY2Du_6bEz6hwa-79">
          <mxGeometry x="-0.714" y="1" relative="1" as="geometry">
            <mxPoint y="-9" as="offset" />
          </mxGeometry>
        </mxCell>
        <mxCell id="MaOenqcY2Du_6bEz6hwa-81" style="edgeStyle=orthogonalEdgeStyle;rounded=0;orthogonalLoop=1;jettySize=auto;html=1;exitX=1;exitY=0.5;exitDx=0;exitDy=0;entryX=0.75;entryY=1;entryDx=0;entryDy=0;" edge="1" parent="1" source="MaOenqcY2Du_6bEz6hwa-49" target="MaOenqcY2Du_6bEz6hwa-37">
          <mxGeometry relative="1" as="geometry" />
        </mxCell>
        <mxCell id="MaOenqcY2Du_6bEz6hwa-82" value="New Round Data" style="edgeLabel;html=1;align=center;verticalAlign=middle;resizable=0;points=[];" vertex="1" connectable="0" parent="MaOenqcY2Du_6bEz6hwa-81">
          <mxGeometry x="-0.5606" y="2" relative="1" as="geometry">
            <mxPoint x="51" y="-8" as="offset" />
          </mxGeometry>
        </mxCell>
        <mxCell id="MaOenqcY2Du_6bEz6hwa-83" style="edgeStyle=orthogonalEdgeStyle;rounded=0;orthogonalLoop=1;jettySize=auto;html=1;exitX=1;exitY=1;exitDx=0;exitDy=0;entryX=1;entryY=0.5;entryDx=0;entryDy=0;" edge="1" parent="1" source="MaOenqcY2Du_6bEz6hwa-37" target="MaOenqcY2Du_6bEz6hwa-62">
          <mxGeometry relative="1" as="geometry" />
        </mxCell>
        <mxCell id="MaOenqcY2Du_6bEz6hwa-84" value="Level End" style="edgeLabel;html=1;align=center;verticalAlign=middle;resizable=0;points=[];" vertex="1" connectable="0" parent="MaOenqcY2Du_6bEz6hwa-83">
          <mxGeometry x="0.495" relative="1" as="geometry">
            <mxPoint y="-10" as="offset" />
          </mxGeometry>
        </mxCell>
        <mxCell id="MaOenqcY2Du_6bEz6hwa-86" style="edgeStyle=orthogonalEdgeStyle;rounded=0;orthogonalLoop=1;jettySize=auto;html=1;exitX=0;exitY=0.5;exitDx=0;exitDy=0;" edge="1" parent="1" source="MaOenqcY2Du_6bEz6hwa-62" target="MaOenqcY2Du_6bEz6hwa-5">
          <mxGeometry relative="1" as="geometry" />
        </mxCell>
        <mxCell id="MaOenqcY2Du_6bEz6hwa-87" value="Level Select Screen" style="edgeLabel;html=1;align=center;verticalAlign=middle;resizable=0;points=[];" vertex="1" connectable="0" parent="MaOenqcY2Du_6bEz6hwa-86">
          <mxGeometry x="-0.3335" y="-1" relative="1" as="geometry">
            <mxPoint as="offset" />
          </mxGeometry>
        </mxCell>
      </root>
    </mxGraphModel>
  </diagram>
</mxfile>
